<svg xmlns="http://www.w3.org/2000/svg" viewBox="0 11.149999618530273 239.0500030517578 36.15000534057617" data-asc="0.932" width="239.0500030517578" height="36.15000534057617"><defs/><g><g fill="#ffffff"><g transform="translate(0, 0)"><path d="M17.30 47.30Q8.85 47.30 4.43 42.60Q0 37.90 0 29.25Q0 24.95 1.35 21.57Q2.70 18.20 5.05 15.88Q7.40 13.55 10.65 12.35Q13.90 11.15 17.70 11.15Q19.90 11.15 21.70 11.48Q23.50 11.80 24.85 12.23Q26.20 12.65 27.10 13.10Q28 13.55 28.40 13.80L26.15 20.10Q24.55 19.25 22.43 18.65Q20.30 18.05 17.60 18.05Q15.80 18.05 14.07 18.65Q12.35 19.25 11.03 20.57Q9.70 21.90 8.90 24Q8.10 26.10 8.10 29.10Q8.10 31.50 8.63 33.58Q9.15 35.65 10.33 37.15Q11.50 38.65 13.40 39.52Q15.30 40.40 18 40.40Q19.70 40.40 21.05 40.20Q22.40 40 23.45 39.73Q24.50 39.45 25.30 39.10Q26.10 38.75 26.75 38.45L28.90 44.70Q27.25 45.70 24.25 46.50Q21.25 47.30 17.30 47.30ZM57.10 46.60Q56.55 44.80 55.88 42.90Q55.20 41 54.55 39.10L41.05 39.10Q40.40 41 39.73 42.90Q39.05 44.80 38.50 46.60L30.40 46.60Q32.35 41 34.10 36.25Q35.85 31.50 37.52 27.30Q39.20 23.10 40.83 19.32Q42.45 15.55 44.20 11.95L51.65 11.95Q53.35 15.55 55 19.32Q56.65 23.10 58.33 27.30Q60 31.50 61.75 36.25Q63.50 41 65.45 46.60L57.10 46.60M47.75 19.80Q47.50 20.55 47 21.85Q46.50 23.15 45.85 24.85Q45.20 26.55 44.42 28.60Q43.65 30.65 42.85 32.90L52.70 32.90Q51.90 30.65 51.15 28.60Q50.40 26.55 49.73 24.85Q49.05 23.15 48.55 21.85Q48.05 20.55 47.75 19.80ZM80.25 46.60Q78.20 42.25 76.20 37.55Q74.20 32.85 72.40 28.25Q70.60 23.65 69.08 19.45Q67.55 15.25 66.45 11.95L75.05 11.95Q76.05 14.95 77.23 18.43Q78.40 21.90 79.63 25.35Q80.85 28.80 82 31.95Q83.15 35.10 84.15 37.40Q85.10 35.10 86.28 31.95Q87.45 28.80 88.68 25.35Q89.90 21.90 91.08 18.43Q92.25 14.95 93.25 11.95L101.55 11.95Q100.40 15.25 98.90 19.45Q97.40 23.65 95.60 28.25Q93.80 32.85 91.80 37.55Q89.80 42.25 87.75 46.60L80.25 46.60ZM106.05 46.60L106.05 11.95L129.45 11.95L129.45 18.50L113.85 18.50L113.85 25.30L127.70 25.30L127.70 31.70L113.85 31.70L113.85 40.05L130.60 40.05L130.60 46.60L106.05 46.60ZM146.50 11.55Q154.30 11.55 158.45 14.33Q162.60 17.10 162.60 22.95Q162.60 26.60 160.93 28.88Q159.25 31.15 156.10 32.45Q157.15 33.75 158.30 35.42Q159.45 37.10 160.58 38.92Q161.70 40.75 162.75 42.73Q163.80 44.70 164.70 46.60L155.95 46.60Q155.00 44.90 154.03 43.15Q153.05 41.40 152.03 39.75Q151.00 38.10 150.00 36.63Q149.00 35.15 148.00 33.95L144.15 33.95L144.15 46.60L136.35 46.60L136.35 12.45Q138.90 11.95 141.63 11.75Q144.35 11.55 146.50 11.55M146.95 18.20Q146.10 18.20 145.43 18.25Q144.75 18.30 144.15 18.35L144.15 27.75L146.35 27.75Q150.75 27.75 152.65 26.65Q154.55 25.55 154.55 22.90Q154.55 20.35 152.63 19.27Q150.70 18.20 146.95 18.20ZM192.95 46.60Q189.60 40.65 185.70 34.85Q181.80 29.05 177.40 23.90L177.40 46.60L169.70 46.60L169.70 11.95L176.05 11.95Q177.70 13.60 179.70 16Q181.70 18.40 183.78 21.13Q185.85 23.85 187.90 26.77Q189.95 29.70 191.75 32.40L191.75 11.95L199.50 11.95L199.50 46.60L192.95 46.60ZM230.70 46.60Q230.15 44.80 229.48 42.90Q228.80 41 228.15 39.10L214.65 39.10Q214.00 41 213.33 42.90Q212.65 44.80 212.10 46.60L204.00 46.60Q205.95 41 207.70 36.25Q209.45 31.50 211.13 27.30Q212.80 23.10 214.43 19.32Q216.05 15.55 217.80 11.95L225.25 11.95Q226.95 15.55 228.60 19.32Q230.25 23.10 231.93 27.30Q233.60 31.50 235.35 36.25Q237.10 41 239.05 46.60L230.70 46.60M221.35 19.80Q221.10 20.55 220.60 21.85Q220.10 23.15 219.45 24.85Q218.80 26.55 218.03 28.60Q217.25 30.65 216.45 32.90L226.30 32.90Q225.50 30.65 224.75 28.60Q224.00 26.55 223.33 24.85Q222.65 23.15 222.15 21.85Q221.65 20.55 221.35 19.80Z"/></g></g></g></svg>